<?xml version="1.0" standalone="no"?>
<!DOCTYPE svg PUBLIC "-//W3C//DTD SVG 20010904//EN"
 "http://www.w3.org/TR/2001/REC-SVG-20010904/DTD/svg10.dtd">
<svg version="1.0" xmlns="http://www.w3.org/2000/svg"
 width="840.000000pt" height="840.000000pt" viewBox="0 0 840.000000 840.000000"
 preserveAspectRatio="xMidYMid meet">
<metadata>
Created by potrace 1.11, written by Peter Selinger 2001-2013
</metadata>
<g transform="translate(0.000000,840.000000) scale(0.100000,-0.100000)"
fill="#000000" stroke="none">
<path d="M3917 7204 c-3 -4 -30 -8 -59 -9 -29 -2 -78 -6 -108 -10 -30 -3 -73
-8 -95 -10 -22 -2 -51 -7 -65 -10 -14 -3 -41 -7 -60 -8 -19 -1 -37 -5 -40 -8
-3 -4 -25 -9 -50 -12 -25 -4 -81 -16 -125 -27 -44 -12 -87 -23 -95 -25 -8 -2
-15 -4 -15 -5 0 -1 -11 -3 -24 -6 -13 -2 -42 -13 -65 -23 -23 -10 -49 -17 -59
-15 -9 1 -17 -1 -17 -6 0 -4 -7 -11 -16 -14 -10 -4 -13 -2 -8 7 4 6 -2 4 -13
-5 -11 -10 -25 -18 -32 -18 -14 0 -38 -10 -186 -79 -55 -25 -101 -49 -103 -53
-2 -5 -12 -8 -22 -8 -10 0 -20 -5 -22 -10 -2 -6 -13 -12 -26 -13 -12 0 -22 -4
-22 -8 0 -4 -26 -22 -57 -39 -102 -57 -300 -192 -360 -245 -6 -5 -26 -21 -44
-35 -17 -14 -48 -39 -68 -57 -20 -18 -40 -33 -44 -33 -5 0 -5 -4 -2 -10 3 -5
1 -10 -5 -10 -18 0 -228 -217 -300 -310 -19 -25 -37 -47 -41 -50 -3 -3 -38
-50 -77 -105 -39 -55 -78 -108 -86 -117 -9 -10 -14 -18 -11 -18 3 0 -10 -24
-29 -52 -42 -67 -81 -141 -78 -150 1 -5 -3 -8 -8 -8 -6 0 -14 -10 -19 -22 -5
-13 -27 -61 -48 -108 -38 -81 -55 -119 -57 -130 -1 -3 -7 -15 -14 -26 -6 -12
-8 -24 -5 -28 3 -3 1 -6 -6 -6 -7 0 -10 -4 -6 -9 3 -5 1 -12 -5 -16 -6 -4 -8
-11 -5 -16 4 -5 1 -9 -4 -9 -6 0 -10 -3 -10 -7 1 -5 1 -10 -1 -13 -1 -3 -3
-16 -6 -29 -2 -14 -8 -29 -13 -35 -5 -6 -12 -27 -17 -46 -4 -19 -8 -37 -9 -40
-1 -3 -7 -23 -14 -45 -7 -22 -19 -69 -27 -105 -8 -36 -17 -74 -20 -85 -3 -11
-9 -45 -14 -75 -6 -30 -12 -66 -15 -80 -3 -14 -8 -50 -11 -80 -3 -30 -8 -66
-11 -80 -8 -38 -13 -520 -5 -520 4 0 7 -21 8 -48 0 -53 11 -162 18 -183 3 -8
7 -32 10 -54 3 -22 10 -62 16 -90 7 -27 13 -59 16 -70 3 -18 16 -73 19 -85 1
-3 5 -18 9 -35 4 -16 10 -37 13 -45 3 -8 7 -19 8 -25 8 -32 76 -225 89 -250 9
-16 16 -38 16 -47 0 -10 4 -18 9 -18 5 0 12 -11 15 -25 7 -28 67 -157 76 -165
3 -3 12 -20 20 -38 7 -19 18 -39 24 -46 6 -6 24 -36 40 -65 56 -105 237 -357
327 -456 48 -53 269 -274 269 -269 0 4 12 -7 28 -22 15 -16 45 -43 67 -60 127
-99 222 -167 292 -210 43 -26 81 -53 85 -59 4 -5 8 -6 8 -1 0 5 8 2 18 -6 22
-20 212 -118 228 -118 7 0 14 -3 16 -7 4 -9 152 -73 186 -80 12 -3 22 -10 22
-16 0 -6 3 -8 6 -4 4 3 35 -5 70 -18 35 -13 64 -22 64 -18 0 3 10 -1 23 -9 12
-8 30 -14 40 -12 9 1 17 -2 17 -7 0 -5 3 -8 8 -7 4 1 19 -2 33 -6 14 -4 34 -9
45 -11 10 -2 19 -4 19 -5 0 -2 6 -3 105 -24 73 -15 85 -17 160 -30 81 -14 98
-16 165 -23 165 -17 720 -4 720 17 0 1 16 4 35 6 54 6 91 12 134 23 22 5 43 8
47 5 4 -2 11 1 14 7 4 5 13 8 20 5 7 -2 16 -2 20 2 4 4 10 7 13 8 25 3 89 18
97 23 6 3 15 6 21 7 53 8 256 81 359 129 39 17 81 36 95 40 14 4 27 10 30 14
3 3 41 24 85 46 44 21 127 69 183 105 57 36 113 70 123 76 11 6 30 21 43 33
12 11 26 21 30 21 4 0 13 6 20 12 7 7 25 22 40 33 16 11 34 26 42 33 8 7 14
11 14 8 0 -2 13 8 28 22 62 59 205 187 213 190 5 2 9 7 9 11 0 4 30 39 68 79
77 82 125 137 149 173 10 13 22 29 28 36 24 28 34 42 89 120 32 46 55 83 52
83 -3 0 1 8 10 18 28 32 73 106 68 114 -3 4 -1 8 4 8 9 0 120 218 170 335 16
39 26 73 21 76 -5 3 -117 5 -249 5 -132 -1 -240 3 -240 8 0 5 -6 4 -12 -1 -7
-5 -123 -8 -258 -7 -253 1 -290 -4 -290 -41 0 -7 -6 -20 -12 -27 -7 -7 -26
-33 -43 -58 -38 -58 -40 -60 -67 -92 -13 -14 -32 -39 -43 -54 -11 -15 -32 -40
-47 -57 -16 -16 -28 -34 -28 -40 0 -6 -3 -8 -6 -5 -3 3 -24 -15 -47 -40 -23
-25 -55 -57 -71 -71 -15 -14 -33 -30 -40 -36 -67 -67 -295 -231 -348 -251 -10
-3 -18 -11 -18 -16 0 -5 -4 -7 -9 -3 -6 3 -14 -3 -20 -12 -6 -10 -11 -15 -11
-11 0 5 -30 -8 -67 -27 -37 -19 -73 -35 -80 -35 -7 0 -13 -4 -13 -10 0 -5 -3
-9 -7 -8 -8 2 -111 -34 -148 -52 -23 -11 -128 -39 -168 -45 -15 -2 -32 -7 -38
-11 -6 -4 -30 -8 -53 -10 -22 -1 -41 -3 -41 -4 0 -2 -19 -6 -61 -14 -47 -9
-264 -21 -284 -17 -3 1 -48 3 -100 6 -52 2 -113 7 -135 10 -22 4 -51 9 -65 11
-14 3 -34 6 -45 8 -11 1 -31 6 -45 9 -14 4 -36 9 -50 11 -14 3 -41 10 -60 16
-19 6 -42 13 -50 15 -28 6 -145 48 -170 60 -14 7 -70 33 -125 59 -104 50 -353
209 -362 233 -3 7 -11 13 -17 13 -16 0 -220 199 -272 265 -21 28 -41 52 -44
55 -18 16 -100 130 -94 130 4 0 -2 10 -13 23 -57 63 -215 383 -238 482 -2 11
-14 46 -25 78 -11 32 -18 62 -15 67 4 6 2 10 -3 10 -9 0 -27 85 -26 123 0 9
-3 17 -7 17 -4 0 -7 8 -7 18 0 9 -2 31 -5 47 -12 64 -17 113 -22 194 -3 46 -8
87 -10 92 -3 4 -1 10 5 14 6 4 7 11 4 17 -8 12 -2 243 6 243 1 0 3 16 6 35 13
120 15 135 29 190 3 14 8 40 10 58 3 18 10 42 15 53 6 10 8 19 5 19 -3 0 2 17
11 38 9 20 17 44 18 52 1 8 6 24 10 35 28 72 41 105 59 145 12 25 22 47 22 50
7 24 37 80 45 85 6 4 8 10 5 15 -3 5 -1 11 5 15 6 4 22 29 35 56 14 27 29 49
34 49 5 0 11 8 15 18 5 17 22 45 41 69 6 7 18 23 27 35 9 13 38 47 63 77 25
30 45 58 45 63 0 4 6 8 14 8 8 0 18 9 21 20 4 11 11 18 16 15 5 -4 9 -2 9 4 0
13 61 71 174 165 63 53 218 154 291 191 33 17 62 33 63 38 2 4 12 7 23 7 10 0
19 5 19 10 0 6 7 10 15 10 9 0 30 8 48 17 18 9 37 18 42 19 6 1 24 8 40 15 17
7 35 13 40 14 6 0 16 4 23 8 6 5 12 5 12 1 0 -3 6 -1 14 5 8 7 22 13 32 16 11
2 46 11 79 19 33 9 74 19 90 21 17 3 44 8 60 12 17 3 40 7 52 9 13 1 40 5 60
8 66 11 164 16 298 15 185 0 253 -7 437 -44 87 -17 306 -81 323 -95 6 -4 26
-13 45 -19 20 -6 81 -34 135 -62 55 -29 110 -57 122 -63 13 -6 23 -14 23 -18
0 -5 7 -8 15 -8 8 0 15 -4 15 -10 0 -5 5 -10 11 -10 10 0 107 -65 119 -81 3
-3 13 -10 22 -15 42 -23 220 -193 281 -268 18 -21 40 -46 50 -55 9 -8 17 -19
17 -24 0 -5 7 -15 16 -24 8 -9 38 -50 66 -92 28 -42 55 -78 59 -81 6 -4 1019
-5 1026 -1 4 2 -49 127 -59 139 -6 6 -8 12 -5 12 7 0 -113 238 -149 295 -13
22 -27 47 -31 55 -4 8 -9 17 -13 20 -3 3 -19 28 -35 55 -15 28 -31 52 -35 55
-3 3 -22 27 -41 55 -45 64 -46 67 -123 160 -36 44 -66 83 -66 88 0 4 -4 5 -10
2 -5 -3 -10 -1 -10 5 0 14 -203 217 -280 280 -30 24 -62 53 -71 62 -9 10 -19
18 -23 18 -6 0 -45 31 -78 63 -10 9 -18 14 -18 11 0 -3 -17 7 -37 24 -21 16
-53 37 -70 48 -18 10 -33 21 -33 24 0 3 -25 18 -55 35 -30 16 -55 33 -55 37 0
4 -9 8 -19 8 -11 0 -22 4 -25 9 -6 9 -46 31 -171 93 -91 46 -280 122 -386 156
-83 26 -107 33 -169 49 -8 2 -32 6 -52 10 -21 3 -38 9 -38 13 0 5 -8 7 -17 6
-10 -2 -31 1 -48 5 -31 8 -88 18 -140 25 -16 2 -39 6 -51 9 -26 6 -143 17
-211 19 -29 2 -56 5 -59 9 -3 3 -16 2 -29 -3 -13 -5 -26 -6 -29 -2 -6 5 -33 5
-131 0 -17 -1 -35 1 -41 5 -6 3 -14 4 -17 1z"/>
<path d="M3997 5244 c-2 -2 -28 -6 -58 -9 -76 -7 -128 -16 -186 -34 -17 -5
-34 -7 -37 -3 -3 3 -6 1 -6 -5 0 -6 -20 -16 -45 -22 -64 -16 -234 -113 -295
-168 -14 -13 -28 -23 -33 -23 -4 0 -5 -4 -2 -10 3 -5 1 -10 -5 -10 -11 0 -40
-28 -102 -99 -16 -17 -28 -33 -28 -36 0 -3 -8 -14 -17 -25 -34 -39 -102 -166
-131 -245 -17 -47 -53 -173 -51 -182 1 -4 1 -10 0 -13 -5 -12 -12 -101 -13
-165 -1 -65 5 -134 17 -195 3 -14 8 -41 12 -60 4 -19 7 -37 8 -40 0 -3 3 -9 6
-15 4 -5 12 -28 19 -50 16 -50 62 -149 73 -153 4 -2 7 -8 7 -13 0 -36 225
-299 255 -299 7 0 15 -6 18 -12 3 -7 31 -29 63 -48 33 -19 61 -38 62 -42 2 -5
10 -8 18 -8 7 0 28 -8 46 -18 41 -23 134 -58 173 -66 52 -9 106 -24 112 -30 4
-3 12 -1 20 5 8 8 13 8 13 1 0 -11 254 -9 300 2 14 3 39 9 55 11 45 8 185 57
191 67 3 4 13 8 23 8 9 0 27 9 38 19 12 11 23 18 25 15 3 -2 36 17 74 43 108
73 199 161 264 253 14 19 30 40 36 46 6 7 31 53 55 103 l44 91 100 0 c55 1
346 1 646 1 533 0 548 1 585 21 22 11 43 27 47 34 4 8 15 14 22 14 8 0 15 5
15 10 0 6 7 10 15 10 8 0 15 5 15 10 0 6 5 10 10 10 6 0 20 8 31 19 11 10 45
36 77 57 31 21 59 41 62 44 3 3 25 19 50 35 25 17 54 38 64 48 11 9 26 17 33
17 8 0 11 5 8 10 -3 6 1 10 9 10 9 0 16 4 16 9 0 5 14 14 30 21 17 7 30 16 30
19 0 4 18 17 40 30 22 12 40 26 40 32 0 5 5 9 10 9 8 0 103 65 165 112 49 38
135 97 135 93 0 -3 15 10 34 29 19 19 37 31 40 28 3 -3 6 -1 6 4 0 5 -464 9
-1162 9 l-1162 0 -47 93 c-68 134 -111 194 -205 287 -68 67 -113 105 -124 105
-5 0 -10 4 -10 10 0 5 -11 12 -25 16 -14 3 -25 10 -25 14 0 21 -237 120 -325
136 -14 2 -37 7 -52 10 -16 3 -42 7 -60 8 -18 1 -35 4 -38 8 -3 3 -21 2 -38
-2 -18 -4 -42 -3 -54 1 -12 4 -23 6 -26 3z"/>
</g>
</svg>
